Coordinates
version=1
nRows=16
nColumns=36
inDegrees=yes

Units are S.I. units (second, meters, Newtons, ...)
If the header above contains a line with 'inDegrees', this indicates whether rotational values are in degrees (yes) or radians (no).

endheader
time	pelvis_tilt	pelvis_list	pelvis_rotation	pelvis_tx	pelvis_ty	pelvis_tz	hip_flexion_r	hip_adduction_r	hip_rotation_r	knee_angle_r	knee_angle_r_beta	ankle_angle_r	subtalar_angle_r	mtp_angle_r	hip_flexion_l	hip_adduction_l	hip_rotation_l	knee_angle_l	knee_angle_l_beta	ankle_angle_l	subtalar_angle_l	mtp_angle_l	lumbar_extension	lumbar_bending	lumbar_rotation	arm_flex_r	arm_add_r	arm_rot_r	elbow_flex_r	pro_sup_r	arm_flex_l	arm_add_l	arm_rot_l	elbow_flex_l	pro_sup_l
      2.96250000	    -11.65619647	      2.72495051	      1.08258634	      0.15120868	      0.70911802	     -0.05498727	     65.95347789	     -0.55660575	      8.41667361	     80.79705114	      1.41017457	     21.35154605	    -22.06583589	     -7.49999987	     64.27243323	      4.32515240	      9.61364169	     84.65454197	      1.47750048	     22.56543209	    -15.96299505	     -7.49999987	    -13.51799968	      2.58998537	      2.45932915	     69.94667534	    -40.11453797	     23.78718392	     70.16036823	     80.03055831	     78.48255982	    -60.12417012	     11.71318149	     30.71282354	     53.99351311
      2.96666670	    -12.10079763	      2.78734103	      1.07722135	      0.14938312	      0.70501995	     -0.05496180	     66.76811839	     -0.54195009	      8.62370418	     81.62973821	      1.42470770	     22.23274386	    -21.48550348	     -7.49999987	     65.10792397	      4.47270710	      9.64572395	     85.46959626	      1.49172587	     23.05330740	    -16.08138348	     -7.49999987	    -13.83248458	      2.65205760	      2.25654193	     68.89744911	    -40.02590825	     23.59442594	     69.92242778	     79.81154709	     77.24857162	    -59.94092171	     11.62439312	     29.53409971	     54.08502605
      2.97083330	    -12.04708978	      2.78165792	      0.96422804	      0.14976051	      0.70224335	     -0.05322862	     66.96498201	     -0.39510833	      8.68425656	     82.07754276	      1.43252336	     22.90589674	    -21.37686629	     -7.49999987	     65.32232699	      4.41386334	      9.83949096	     86.03425133	      1.50158096	     23.27836248	    -16.19055057	     -7.49999987	    -14.94340548	      2.52790283	      2.20474901	     68.01743262	    -40.24317403	     23.41118454	     69.64067089	     79.28283549	     76.38107116	    -59.75371576	     11.53990192	     29.96626520	     54.22028689
      2.97500000	    -12.95653320	      2.90418378	      0.86819680	      0.15199654	      0.69777250	     -0.05402713	     68.27822418	     -0.40379492	      8.71521837	     82.83160477	      1.44568423	     23.75768256	    -20.79220557	     -7.49999987	     66.48892064	      4.45242312	      9.73899219	     86.60404816	      1.51152579	     23.60330514	    -16.35767549	     -7.49999987	    -14.22908735	      2.40560537	      2.96889474	     65.60834133	    -40.19587600	     20.87622041	     69.01297823	     81.55407901	     77.91436179	    -56.60877163	     10.61830304	     24.93140575	     54.85209225
      2.97916670	    -13.53588203	      2.96804026	      0.78994902	      0.15345993	      0.69216167	     -0.05361768	     69.20788118	     -0.39928668	      8.77605392	     83.38407277	      1.45532661	     24.56290875	    -20.18557924	     -7.49999987	     67.42578480	      4.36860666	      9.54844236	     87.31838288	      1.52399328	     24.06833175	    -16.39469777	     -7.49999987	    -14.19358129	      2.43990916	      2.57400054	     64.46381928	    -39.47772833	     20.88698875	     69.13116605	     80.85977068	     77.26297777	    -56.24989694	     10.12312558	     24.32600428	     54.97951651
      2.98333330	    -14.32330291	      3.02738000	      0.58694081	      0.15417442	      0.68849138	     -0.05294426	     70.47928374	     -0.26442982	      8.79014736	     84.04589040	      1.46687751	     24.83430643	    -20.32940432	     -7.49999987	     68.51811956	      4.23062942	      9.35445693	     88.01769220	      1.53619853	     24.64804031	    -16.31748062	     -7.49999987	    -13.79382119	      2.57152395	      2.46434230	     63.33164341	    -38.65024458	     20.75821081	     68.65540211	     80.86059192	     76.79318840	    -55.25569136	      9.66590644	     22.53694003	     54.94421124
      2.98750000	    -14.95005200	      3.05043333	      0.47723823	      0.15600732	      0.68641289	     -0.05387828	     71.46080458	     -0.20585540	      8.71215959	     84.58495732	      1.47628600	     24.98427634	    -20.48319541	     -7.49999987	     69.44294601	      4.15513017	      9.23956998	     88.59114621	      1.54620719	     24.80077181	    -16.41295023	     -7.49999987	    -13.59064318	      2.42865009	      3.76506280	     60.62164629	    -39.45275980	     18.52682069	     69.25825824	     83.31913002	     77.84253840	    -51.93418789	      8.76278907	     20.25919870	     55.52578689
      2.99166670	    -15.52411283	      2.98978030	      0.13120277	      0.15832842	      0.68204253	     -0.05552765	     72.32862203	     -0.04468426	      8.56443968	     85.21460960	      1.48727551	     25.41185410	    -20.37503641	     -7.49999987	     70.26900885	      3.91460221	      9.17340987	     89.37955995	      1.55996761	     25.18238373	    -16.31017905	     -7.49999987	    -13.37595220	      2.66321220	      3.99351621	     59.27724797	    -39.01009724	     18.39719447	     69.18898572	     82.79295628	     75.44616936	    -51.99254008	      8.68572507	     19.92804360	     55.68396797
      2.99583330	    -16.15326223	      2.88156374	     -0.02817421	      0.15873320	      0.67987035	     -0.05549312	     73.13246745	      0.05761348	      8.44748546	     85.63222476	      1.49456427	     25.64804763	    -20.41895035	     -7.49999987	     71.20201818	      3.73906536	      9.18517700	     90.03074880	      1.57133299	     25.49924401	    -16.28531361	     -7.49999987	    -13.30343999	      2.93426003	      2.93453457	     58.95643332	    -36.95681829	     18.75672651	     67.69024329	     86.04440876	     69.63876609	    -54.24305074	      5.04042886	     22.36958425	     55.20457230
      3.00000000	    -16.65230676	      2.76568620	     -0.11585993	      0.15748618	      0.67781682	     -0.05391523	     73.88971611	      0.13974130	      8.18890750	     85.99600820	      1.50091349	     26.01006613	    -20.36174086	     -7.49999987	     71.89453700	      3.54553316	      9.27362138	     90.32663903	      1.57649725	     25.62604789	    -15.91375628	     -7.49999987	    -13.52125759	      2.79599680	      3.25160204	     57.02844598	    -36.95817615	     18.23335721	     68.07406822	     85.40309279	     65.83347123	    -54.65403280	      5.09194486	     23.15672501	     55.38554639
      3.00416670	    -17.15353215	      2.78111902	     -0.21982373	      0.15624830	      0.67557700	     -0.05138455	     74.74940015	      0.34143105	      8.07393742	     86.40479747	      1.50804821	     25.98233236	    -20.50489535	     -7.49999987	     72.70189460	      3.21806087	      9.23650416	     90.64944336	      1.58213125	     25.59742719	    -15.80231958	     -7.49999987	    -14.05653648	      2.38327733	      3.01790255	     55.52844597	    -36.13530824	     17.16649311	     68.33228725	     85.04950424	     61.12073082	    -55.74483027	      4.14987443	     25.90983299	     55.37420918
      3.00833330	    -17.58264300	      2.70805929	     -0.34144652	      0.15708185	      0.67425871	     -0.04862743	     75.42047992	      0.66871617	      7.85659456	     86.62295934	      1.51185585	     25.95194213	    -20.51040483	     -7.49999987	     73.28313027	      2.62578038	      9.15799591	     90.76936462	      1.58422427	     25.49452670	    -15.73679019	     -7.49999987	    -14.57933165	      2.07707660	      2.98866441	     54.17902391	    -35.49164834	     17.16099193	     68.05948108	     84.45292503	     59.01566775	    -55.44081728	      3.50813119	     25.78590450	     55.38716814
      3.01250000	    -17.99129442	      2.59478088	     -0.31954233	      0.15678259	      0.67249874	     -0.04661588	     76.02576134	      0.88253915	      7.49970499	     86.80654647	      1.51506005	     25.63169120	    -20.84711677	     -7.49999987	     73.92271573	      2.14741869	      9.16943266	     90.93542293	      1.58712254	     25.46035764	    -15.31319522	     -7.49999987	    -15.13224296	      2.11234148	      1.19031376	     54.72099384	    -32.50907853	     18.86153638	     65.79313633	     86.94404759	     54.08997529	    -56.54134635	     -1.49572269	     26.98939959	     55.45601003
      3.01666670	    -17.96684127	      2.56999106	     -0.12078952	      0.15542807	      0.67364179	     -0.04308848	     76.01833487	      0.94954989	      7.25214803	     86.79798148	      1.51491056	     25.70388445	    -20.70799956	     -7.49999987	     73.94577297	      1.83962697	      9.06862921	     90.89111350	      1.58634919	     25.20794609	    -15.08900866	     -7.49999987	    -16.47264772	      1.61399846	      1.08862119	     53.60537815	    -32.15963410	     19.04355740	     65.78423008	     86.14730752	     53.34226574	    -55.81876024	     -1.38299618	     27.67211055	     55.61211363
      3.02083330	    -17.98998204	      2.47687543	      0.02908306	      0.15690492	      0.66918102	     -0.04260078	     76.32590283	      0.98213891	      6.94599262	     87.33750197	      1.52432697	     25.67026525	    -20.91660651	     -7.49999987	     74.33121696	      1.47863065	      9.11894031	     91.41041509	      1.59541271	     24.97848301	    -14.75509354	     -7.49999987	    -17.28709526	      1.10849468	      0.81047109	     52.26145843	    -31.57021822	     19.35970672	     65.55829014	     86.16506466	     52.77305069	    -55.21661081	     -1.23403949	     27.50293315	     55.62197685
      3.02500000	    -19.16622953	      2.37598130	      0.11965417	      0.16109518	      0.66482020	     -0.04264149	     77.65353043	      1.12027274	      6.74463377	     87.75243862	      1.53156898	     25.60890512	    -21.28579054	     -7.49999987	     75.91605948	      1.09029905	      9.02056397	     92.14127780	      1.60816867	     25.74125761	    -13.20191206	     -7.49999987	    -16.28132902	      0.70742895	      0.64892702	     49.93611347	    -30.31757465	     18.21199968	     64.88613134	     86.06759506	     50.75218630	    -54.63846338	     -0.62788411	     27.77610594	     55.68884150
